<?xml version="1.0" encoding="UTF-8" standalone="no"?>
<!-- Created with Inkscape (http://www.inkscape.org/) -->

<svg
   width="480"
   height="150"
   viewBox="0 0 127 39.6875"
   version="1.1"
   id="svg883"
   xmlns:xlink="http://www.w3.org/1999/xlink"
   xmlns="http://www.w3.org/2000/svg"
   xmlns:svg="http://www.w3.org/2000/svg">
  <defs
     id="defs880">
    <linearGradient
       id="linearGradient17266">
      <stop
         style="stop-color:#2b3035;stop-opacity:1;"
         offset="0"
         id="stop17264" />
    </linearGradient>
    <filter
       style="color-interpolation-filters:sRGB"
       id="filter14203"
       x="-0.1396784"
       y="-0.09613996"
       width="1.2586943"
       height="1.1922799">
      <feFlood
         flood-opacity="1"
         flood-color="rgb(240,43,118)"
         result="flood"
         id="feFlood14193" />
      <feComposite
         in="flood"
         in2="SourceGraphic"
         operator="in"
         result="composite1"
         id="feComposite14195" />
      <feGaussianBlur
         in="composite1"
         stdDeviation="1.2"
         result="blur"
         id="feGaussianBlur14197" />
      <feOffset
         dx="-0.5"
         dy="2.77556e-17"
         result="offset"
         id="feOffset14199" />
      <feComposite
         in="offset"
         in2="SourceGraphic"
         operator="out"
         result="composite2"
         id="feComposite14201" />
    </filter>
    <filter
       style="color-interpolation-filters:sRGB"
       id="filter14215"
       x="-0.17435253"
       y="-0.12744977"
       width="1.3229133"
       height="1.2548995">
      <feFlood
         flood-opacity="1"
         flood-color="rgb(240,43,118)"
         result="flood"
         id="feFlood14205" />
      <feComposite
         in="flood"
         in2="SourceGraphic"
         operator="in"
         result="composite1"
         id="feComposite14207" />
      <feGaussianBlur
         in="composite1"
         stdDeviation="1.2"
         result="blur"
         id="feGaussianBlur14209" />
      <feOffset
         dx="-0.5"
         dy="2.77556e-17"
         result="offset"
         id="feOffset14211" />
      <feComposite
         in="offset"
         in2="SourceGraphic"
         operator="out"
         result="composite2"
         id="feComposite14213" />
    </filter>
    <linearGradient
       xlink:href="#linearGradient17266"
       id="linearGradient18766"
       gradientUnits="userSpaceOnUse"
       x1="24.074886"
       y1="10.071452"
       x2="43.460896"
       y2="10.071452"
       gradientTransform="translate(-4.6753211,2.0582208)" />
    <filter
       style="color-interpolation-filters:sRGB;"
       id="filter19213"
       x="-0.059262396"
       y="-0.15189767"
       width="1.1185248"
       height="1.3037953">
      <feFlood
         flood-opacity="1"
         flood-color="rgb(240,43,131)"
         result="flood"
         id="feFlood19203" />
      <feComposite
         in="flood"
         in2="SourceGraphic"
         operator="in"
         result="composite1"
         id="feComposite19205" />
      <feGaussianBlur
         in="composite1"
         stdDeviation="1"
         result="blur"
         id="feGaussianBlur19207" />
      <feOffset
         dx="0"
         dy="2.77556e-17"
         result="offset"
         id="feOffset19209" />
      <feComposite
         in="offset"
         in2="SourceGraphic"
         operator="out"
         result="fbSourceGraphic"
         id="feComposite19211" />
      <feColorMatrix
         result="fbSourceGraphicAlpha"
         in="fbSourceGraphic"
         values="0 0 0 -1 0 0 0 0 -1 0 0 0 0 -1 0 0 0 0 1 0"
         id="feColorMatrix20691" />
      <feFlood
         id="feFlood20693"
         flood-opacity="1"
         flood-color="rgb(240,43,131)"
         result="flood"
         in="fbSourceGraphic" />
      <feComposite
         in2="fbSourceGraphic"
         id="feComposite20695"
         in="flood"
         operator="in"
         result="composite1" />
      <feGaussianBlur
         id="feGaussianBlur20697"
         in="composite1"
         stdDeviation="1"
         result="blur" />
      <feOffset
         id="feOffset20699"
         dx="0"
         dy="2.77556e-17"
         result="offset" />
      <feComposite
         in2="offset"
         id="feComposite20701"
         in="fbSourceGraphic"
         operator="over"
         result="composite2" />
    </filter>
  </defs>
  <g
     id="layer1"
     transform="translate(0,10.514941)">
    <g
       aria-label="niale"
       id="text164"
       style="font-weight:500;font-size:42.5879px;font-family:'Multa Pecunia';-inkscape-font-specification:'Multa Pecunia Medium';letter-spacing:-1.85208px;fill:#ca7696;fill-opacity:0.984314;stroke-width:0.529167;filter:url(#filter19213)">
      <path
         d="m 56.845642,22.632444 h 4.148062 V 8.7828599 c 0,-4.9742665 -2.981153,-8.23649955 -7.589164,-8.23649955 -2.623414,0 -5.076477,0.99655685 -6.907757,2.77673095 V 1.0574151 H 42.348722 V 22.632444 h 4.148061 V 6.7727111 c 1.669446,-1.7801742 3.475172,-2.7000728 5.510874,-2.7000728 3.083364,0 4.837985,2.0101488 4.837985,5.553462 z"
         id="path21855" />
      <path
         d="M 65.427605,1.0574151 V 22.632444 h 4.148061 V 1.0574151 Z m 2.086807,-4.2332371 c 1.660928,0 2.470098,-0.7750997 2.470098,-2.3338168 0,-1.5501995 -0.80917,-2.3338168 -2.470098,-2.3338168 -1.669446,0 -2.470098,0.7836173 -2.470098,2.3338168 0,1.5842698 0.775099,2.3338168 2.470098,2.3338168 z"
         id="path21857" />
      <path
         d="m 90.985119,22.632444 h 2.683038 v -3.304821 h -1.260602 c -1.12432,0 -1.567234,-0.485502 -1.567234,-1.601304 V 8.5188149 c 0,-4.9657489 -3.262233,-7.97245455 -8.670897,-7.97245455 -4.667633,0 -7.895796,2.05273665 -9.233056,5.86861235 h 4.275825 c 0.783617,-1.9334906 2.325299,-2.8789419 4.744292,-2.8789419 2.947083,0 4.795397,1.7375863 4.795397,4.6335633 v 1.4309534 l -7.027003,0.6473365 c -4.701704,0.400326 -6.873687,2.410475 -6.873687,6.294491 0,4.105473 2.691555,6.601124 7.188838,6.601124 2.648967,0 5.025372,-0.758064 7.197354,-2.257158 0.630301,1.141355 1.873868,1.746103 3.747735,1.746103 z m -9.769663,-2.538238 c -2.844872,0 -4.361001,-1.354296 -4.361001,-3.671077 0,-2.197536 1.030627,-3.296304 3.756252,-3.551831 l 6.141175,-0.570678 v 5.987859 c -1.924973,1.218014 -3.671077,1.805727 -5.536426,1.805727 z"
         id="path21859" />
      <path
         d="m 100.83622,22.632444 h 2.92153 V 19.23393 h -1.99312 c -1.25208,0 -1.907935,-0.553643 -1.907935,-1.780174 V -8.4567213 H 95.717151 V 17.93074 c 0,3.177058 1.58427,4.701704 5.119069,4.701704 z"
         id="path21861" />
      <path
         d="m 114.06879,23.143499 c 4.56542,0 7.62323,-2.010149 8.91791,-5.894165 h -4.10548 c -0.86879,1.976079 -2.49565,2.88746 -4.87205,2.88746 -3.79884,0 -6.07304,-2.930048 -6.07304,-7.844691 v -0.01703 h 15.34868 c 0.0426,-0.817688 0.0596,-1.311708 0.0596,-1.86535 0,-6.107105 -3.60293,-9.86335765 -9.48858,-9.86335765 -6.18376,0 -9.89743,4.25878985 -9.89743,11.33689865 0,7.044038 3.78181,11.26024 10.11037,11.26024 z M 113.83882,3.2719858 c 3.57738,0 5.51939,2.1293949 5.65567,6.2348683 h -11.50725 c 0.3407,-3.8754987 2.51268,-6.2348683 5.85158,-6.2348683 z"
         id="path21863" />
    </g>
    <g
       id="text276-7"
       style="font-weight:500;font-size:42.5879px;font-family:'Multa Pecunia';-inkscape-font-specification:'Multa Pecunia Medium';fill:#ca7696;fill-opacity:0.984314;stroke-width:0.529167;filter:url(#filter14215)" />
    <g
       aria-label="X"
       id="text16755"
       style="font-weight:500;font-size:42.5879px;font-family:'Multa Pecunia';-inkscape-font-specification:'Multa Pecunia Medium';letter-spacing:-1.85208px;fill:#ca7696;fill-opacity:0.984314;stroke-width:0.529167">
      <path
         d="M 12.944068,10.975414 3.5662131,26.187811 h 4.6335633 l 7.4358466,-12.28235 7.469918,12.28235 h 4.659116 L 18.514565,11.060589 27.602823,-3.7685167 H 23.088506 L 15.695247,8.1220245 8.5404796,-3.7685167 H 3.9069163 Z"
         id="path21851" />
    </g>
    <g
       aria-label="e"
       id="text16755-1"
       style="font-weight:500;font-size:42.5879px;font-family:'Multa Pecunia';-inkscape-font-specification:'Multa Pecunia Medium';letter-spacing:-1.85208px;fill:#ca7696;fill-opacity:0.984314;stroke:url(#linearGradient18766);stroke-width:0.264583">
      <path
         d="m 29.509932,23.428242 c 4.565422,0 7.623233,-2.010149 8.917906,-5.894166 h -4.105474 c -0.868793,1.976079 -2.495651,2.88746 -4.872055,2.88746 -3.798841,0 -6.073035,-2.930048 -6.073035,-7.844691 v -0.01703 h 15.348679 c 0.04259,-0.817688 0.05962,-1.311707 0.05962,-1.86535 0,-6.1071047 -3.602936,-9.8633573 -9.488584,-9.8633573 -6.183763,0 -9.897427,4.2587898 -9.897427,11.3368983 0,7.044039 3.781805,11.260241 10.110367,11.260241 z M 29.279957,3.5567282 c 3.577383,0 5.519392,2.1293949 5.655673,6.2348683 H 23.42838 c 0.340703,-3.8754987 2.512686,-6.2348683 5.851577,-6.2348683 z"
         id="path21848" />
    </g>
  </g>
</svg>
