<?xml version="1.0" encoding="UTF-8" standalone="no"?>
<!-- Created with Inkscape (http://www.inkscape.org/) -->

<svg
   width="454.84549"
   height="132.00719"
   viewBox="0 0 120.34453 34.926901"
   version="1.1"
   id="svg883"
   xmlns="http://www.w3.org/2000/svg"
   xmlns:svg="http://www.w3.org/2000/svg">
  <defs
     id="defs880">
    <filter
       style="color-interpolation-filters:sRGB;"
       id="filter14203"
       x="-0.13967841"
       y="-0.096139958"
       width="1.2586943"
       height="1.1922799">
      <feFlood
         flood-opacity="1"
         flood-color="rgb(240,43,118)"
         result="flood"
         id="feFlood14193" />
      <feComposite
         in="flood"
         in2="SourceGraphic"
         operator="in"
         result="composite1"
         id="feComposite14195" />
      <feGaussianBlur
         in="composite1"
         stdDeviation="1.2"
         result="blur"
         id="feGaussianBlur14197" />
      <feOffset
         dx="-0.5"
         dy="2.77556e-17"
         result="offset"
         id="feOffset14199" />
      <feComposite
         in="offset"
         in2="SourceGraphic"
         operator="out"
         result="composite2"
         id="feComposite14201" />
    </filter>
    <filter
       style="color-interpolation-filters:sRGB;"
       id="filter14215"
       x="-0.17435253"
       y="-0.12744977"
       width="1.3229133"
       height="1.2548995">
      <feFlood
         flood-opacity="1"
         flood-color="rgb(240,43,118)"
         result="flood"
         id="feFlood14205" />
      <feComposite
         in="flood"
         in2="SourceGraphic"
         operator="in"
         result="composite1"
         id="feComposite14207" />
      <feGaussianBlur
         in="composite1"
         stdDeviation="1.2"
         result="blur"
         id="feGaussianBlur14209" />
      <feOffset
         dx="-0.5"
         dy="2.77556e-17"
         result="offset"
         id="feOffset14211" />
      <feComposite
         in="offset"
         in2="SourceGraphic"
         operator="out"
         result="composite2"
         id="feComposite14213" />
    </filter>
  </defs>
  <g
     id="layer1"
     transform="translate(-3.3726134,8.6400423)">
    <g
       aria-label="niale"
       id="text164"
       style="font-weight:500;font-size:42.5879px;font-family:'Multa Pecunia';-inkscape-font-specification:'Multa Pecunia Medium';letter-spacing:-1.85208px;fill:#ca7696;fill-opacity:0.984314;stroke-width:0.529167">
      <path
         d="m 57.218353,22.449123 h 4.148062 V 8.5995389 c 0,-4.9742665 -2.981153,-8.23649955 -7.589164,-8.23649955 -2.623414,0 -5.076477,0.99655685 -6.907757,2.77673095 V 0.87409413 H 42.721433 V 22.449123 h 4.148061 V 6.5893901 c 1.669446,-1.7801742 3.475173,-2.7000728 5.510874,-2.7000728 3.083364,0 4.837985,2.0101488 4.837985,5.553462 z"
         id="path16249" />
      <path
         d="M 65.800316,0.87409413 V 22.449123 h 4.148061 V 0.87409413 Z M 67.887123,-3.359143 c 1.660928,0 2.470098,-0.7750997 2.470098,-2.3338168 0,-1.5501995 -0.80917,-2.3338168 -2.470098,-2.3338168 -1.669446,0 -2.470098,0.7836173 -2.470098,2.3338168 0,1.5842698 0.775099,2.3338168 2.470098,2.3338168 z"
         id="path16251" />
      <path
         d="m 91.357831,22.449123 h 2.683037 v -3.304821 h -1.260602 c -1.12432,0 -1.567234,-0.485502 -1.567234,-1.601304 V 8.3354939 c 0,-4.9657489 -3.262233,-7.97245455 -8.670896,-7.97245455 -4.667634,0 -7.895797,2.05273665 -9.233057,5.86861235 h 4.275825 c 0.783618,-1.9334906 2.3253,-2.8789419 4.744292,-2.8789419 2.947083,0 4.795397,1.7375863 4.795397,4.6335633 V 9.4172265 L 80.09759,10.064563 c -4.701704,0.400326 -6.873687,2.410475 -6.873687,6.294491 0,4.105473 2.691556,6.601124 7.188838,6.601124 2.648967,0 5.025372,-0.758064 7.197355,-2.257158 0.6303,1.141355 1.873867,1.746103 3.747735,1.746103 z m -9.769664,-2.538238 c -2.844872,0 -4.361001,-1.354296 -4.361001,-3.671077 0,-2.197536 1.030627,-3.296304 3.756253,-3.551831 l 6.141174,-0.570678 v 5.987859 c -1.924973,1.218014 -3.671076,1.805727 -5.536426,1.805727 z"
         id="path16253" />
      <path
         d="m 101.20893,22.449123 h 2.92153 v -3.398514 h -1.99312 c -1.25208,0 -1.90793,-0.553643 -1.90793,-1.780174 V -8.6400423 H 96.089862 V 17.747419 c 0,3.177058 1.58427,4.701704 5.119068,4.701704 z"
         id="path16255" />
      <path
         d="m 114.4415,22.960178 c 4.56542,0 7.62324,-2.010149 8.91791,-5.894165 h -4.10548 c -0.86879,1.976079 -2.49565,2.88746 -4.87205,2.88746 -3.79884,0 -6.07304,-2.930048 -6.07304,-7.844691 v -0.01703 h 15.34868 c 0.0426,-0.817688 0.0596,-1.311708 0.0596,-1.86535 0,-6.107105 -3.60294,-9.86335765 -9.48859,-9.86335765 -6.18376,0 -9.89743,4.25878985 -9.89743,11.33689865 0,7.044038 3.78181,11.26024 10.11037,11.26024 z M 114.21153,3.0886648 c 3.57738,0 5.51939,2.1293949 5.65567,6.2348683 h -11.50725 c 0.3407,-3.8754987 2.51269,-6.2348683 5.85158,-6.2348683 z"
         id="path16257" />
    </g>
    <g
       aria-label="X"
       id="text110-9"
       style="font-weight:500;font-size:42.5879px;font-family:'Multa Pecunia';-inkscape-font-specification:'Multa Pecunia Medium';fill:#ca7696;fill-opacity:0.984314;stroke-width:0.529167;filter:url(#filter14203)"
       transform="translate(-0.15242208,-0.05698356)">
      <path
         d="M 12.750469,11.07446 3.3726134,26.286858 h 4.6335633 l 7.4358473,-12.28235 7.469917,12.28235 h 4.659116 L 18.320966,11.159636 27.409223,-3.66947 H 22.894906 L 15.501647,8.2210712 8.3468799,-3.66947 H 3.7133166 Z"
         id="path455-3"
         style="fill:#ca7696;fill-opacity:0.984314" />
    </g>
    <g
       aria-label="e"
       id="text276-7"
       style="font-weight:500;font-size:42.5879px;font-family:'Multa Pecunia';-inkscape-font-specification:'Multa Pecunia Medium';fill:#ca7696;fill-opacity:0.984314;stroke-width:0.529167;filter:url(#filter14215)">
      <path
         d="m 29.992495,22.900314 c 4.565422,0 7.623233,-2.010149 8.917906,-5.894165 h -4.105474 c -0.868793,1.976078 -2.495651,2.88746 -4.872055,2.88746 -3.798841,0 -6.073035,-2.930048 -6.073035,-7.844691 v -0.01704 h 15.348679 c 0.04259,-0.817687 0.05962,-1.311707 0.05962,-1.865349 0,-6.1071051 -3.602936,-9.8633577 -9.488584,-9.8633577 -6.183763,0 -9.897427,4.2587898 -9.897427,11.3368987 0,7.044038 3.781805,11.26024 10.110367,11.26024 z M 29.76252,3.0288008 c 3.577384,0 5.519392,2.1293949 5.655673,6.2348683 H 23.910943 C 24.251646,5.3881704 26.423629,3.0288008 29.76252,3.0288008 Z"
         id="path16246" />
    </g>
  </g>
</svg>
